HIERARCHY
ROOT Hips
{
    OFFSET 0.000000 0.000000 0.000000
    CHANNELS 6 Xposition Yposition Zposition Zrotation Xrotation Yrotation
    JOINT Spine
    {
        OFFSET -0.000000 8.603107 0.000000
        CHANNELS 3 Zrotation Xrotation Yrotation
        JOINT Spine1
        {
            OFFSET -0.000000 23.906662 0.000000
            CHANNELS 3 Zrotation Xrotation Yrotation
            JOINT Neck
            {
                OFFSET -0.000000 23.808481 2.164407
                CHANNELS 3 Zrotation Xrotation Yrotation
                JOINT Head
                {
                    OFFSET -0.000000 14.688231 -2.098319
                    CHANNELS 3 Zrotation Xrotation Yrotation
                    End Site
                    {
                        OFFSET -0.000000 26.228985 0.000000
                    }
                }
            }
            JOINT LeftShoulder
            {
                OFFSET 4.178941 22.658146 -0.129871
                CHANNELS 3 Zrotation Xrotation Yrotation
                JOINT LeftArm
                {
                    OFFSET 9.497952 0.000000 0.000000
                    CHANNELS 3 Zrotation Xrotation Yrotation
                    JOINT LeftForeArm
                    {
                        OFFSET 38.855015 0.000000 0.000000
                        CHANNELS 3 Zrotation Xrotation Yrotation
                        JOINT LeftHand
                        {
                            OFFSET 24.940550 0.000000 0.000000
                            CHANNELS 3 Zrotation Xrotation Yrotation
                            End Site
                            {
                                OFFSET 15.737392 0.000000 0.000000
                            }
                        }
                    }
                }
            }
            JOINT RightShoulder
            {
                OFFSET -4.145384 22.658146 -0.129871
                CHANNELS 3 Zrotation Xrotation Yrotation
                JOINT RightArm
                {
                    OFFSET -9.497952 0.000000 0.000000
                    CHANNELS 3 Zrotation Xrotation Yrotation
                    JOINT RightForeArm
                    {
                        OFFSET -38.855015 0.000000 0.000000
                        CHANNELS 3 Zrotation Xrotation Yrotation
                        JOINT RightHand
                        {
                            OFFSET -24.940550 0.000000 0.000000
                            CHANNELS 3 Zrotation Xrotation Yrotation
                            End Site
                            {
                                OFFSET -15.737392 0.000000 0.000000
                            }
                        }
                    }
                }
            }
        }
    }
    JOINT LeftUpLeg
    {
        OFFSET 10.491594 0.000000 0.000000
        CHANNELS 3 Zrotation Xrotation Yrotation
        JOINT LeftLeg
        {
            OFFSET -0.000000 -46.080647 0.000000
            CHANNELS 3 Zrotation Xrotation Yrotation
            JOINT LeftFoot
            {
                OFFSET -0.000000 -50.184704 0.000000
                CHANNELS 3 Zrotation Xrotation Yrotation
                JOINT LeftToeBase
                {
                    OFFSET -0.000000 -6.819536 15.737392
                    CHANNELS 3 Zrotation Xrotation Yrotation
                    End Site
                    {
                        OFFSET -0.000000 0.000000 4.196638
                    }
                }
            }
        }
    }
    JOINT RightUpLeg
    {
        OFFSET -10.491594 0.000000 0.000000
        CHANNELS 3 Zrotation Xrotation Yrotation
        JOINT RightLeg
        {
            OFFSET -0.000000 -46.080647 0.000000
            CHANNELS 3 Zrotation Xrotation Yrotation
            JOINT RightFoot
            {
                OFFSET -0.000000 -50.184704 0.000000
                CHANNELS 3 Zrotation Xrotation Yrotation
                JOINT RightToeBase
                {
                    OFFSET -0.000000 -6.819536 15.737392
                    CHANNELS 3 Zrotation Xrotation Yrotation
                    End Site
                    {
                        OFFSET -0.000000 0.000000 4.196638
                    }
                }
            }
        }
    }
}
MOTION
Frames:    11
Frame Time:    0.008333
-10.329077    103.486511    41.467953    0.113816    0.318264    93.937172    0.098973    -5.115410    0.052877    -1.786878    -2.834914    0.005067    6.291289    16.271795    0.748475    0.737754    0.807087    0.880063    14.980215    -2.086430    -11.597733    -11.937461    -2.189756    7.164825    1.528969    -0.444119    -0.082796    1.078397    -0.414970    2.982361    -14.406473    -0.194141    -8.220048    10.501397    -0.652361    3.873661    -0.627659    -2.380781    -1.111323    -1.523495    -2.371892    -1.126044    -0.014771    1.010208    -0.406437    -3.135169    6.957839    -0.284296    1.750006    -7.366351    13.793912    0.000000    0.000000    0.000000    -0.433423    6.678567    -1.629301    2.804899    -4.522682    -0.776564    -1.732959    -1.121165    -11.517081    0.000000    0.000000    0.000000    
-10.330050    103.484535    41.492535    0.142397    0.320380    93.900070    0.065010    -5.104712    0.061414    -1.786242    -2.860354    0.013732    6.390591    16.380829    0.673694    0.715063    0.918735    0.805053    14.977838    -2.085054    -11.674567    -11.936762    -2.293943    7.182097    1.549831    -0.397410    -0.148413    1.087132    -0.366702    3.029918    -14.314041    -0.167162    -8.191312    10.481320    -0.588806    3.893064    -0.619949    -2.408564    -1.087836    -1.797121    -2.396347    -1.154625    -0.004047    1.031420    -0.404177    -3.136587    6.973162    -0.269686    1.740360    -7.380183    13.828803    0.000000    0.000000    0.000000    -0.416743    6.687813    -1.648919    2.797950    -4.499461    -0.758538    -1.738525    -1.127072    -11.493221    0.000000    0.000000    0.000000    
-10.331045    103.483604    41.504166    0.153923    0.320877    93.882668    0.063615    -5.083475    0.051281    -1.787942    -2.907150    0.002932    6.312603    16.290121    0.682782    0.884029    1.195111    0.829793    14.925698    -2.073906    -11.687294    -11.903107    -2.298862    7.205846    1.552790    -0.360712    -0.189846    1.195578    -0.327502    2.939109    -14.308556    -0.139780    -8.137218    10.505451    -0.548851    3.887277    -0.631982    -2.402597    -1.070092    -1.775647    -2.390607    -1.155437    -0.002177    1.040161    -0.399481    -3.128329    6.979023    -0.260596    1.726928    -7.384523    13.823623    0.000000    0.000000    0.000000    -0.413015    6.697097    -1.625274    2.801362    -4.501359    -0.772422    -1.782828    -1.124234    -11.478660    0.000000    0.000000    0.000000    
-10.329458    103.482269    41.516216    0.161737    0.321466    93.868637    0.047187    -5.080461    0.046327    -1.776342    -2.923553    0.000448    6.278656    16.300817    0.654898    0.966217    1.217359    0.812094    14.895201    -2.071659    -11.692953    -11.883183    -2.334685    7.207695    1.549861    -0.295310    -0.188999    1.264103    -0.263272    2.694665    -14.310479    -0.135986    -8.138042    10.539420    -0.514868    3.923466    -0.667338    -2.366953    -1.091068    -1.666928    -2.357117    -1.113526    0.000938    1.049396    -0.383891    -3.126792    6.974595    -0.235596    1.756336    -7.374360    13.809742    0.000000    0.000000    0.000000    -0.406628    6.703771    -1.618585    2.802123    -4.504106    -0.781346    -1.776782    -1.125655    -11.470331    0.000000    0.000000    0.000000    
-10.330445    103.479942    41.527992    0.162500    0.317576    93.855568    0.029159    -5.089636    0.035560    -1.737510    -2.925874    -0.010053    6.237372    16.297388    0.643471    0.983276    1.188845    0.802525    14.825771    -2.087309    -11.695873    -11.856472    -2.306802    7.230972    1.605794    -0.346938    -0.316702    1.255111    -0.311416    2.849703    -14.343129    -0.128144    -8.104697    10.578618    -0.542145    3.929114    -0.624118    -2.399036    -1.087299    -1.868478    -2.385768    -1.176986    0.008196    1.047013    -0.356349    -3.119677    6.984015    -0.232767    1.753691    -7.388974    13.791133    0.000000    0.000000    0.000000    -0.385844    6.654769    -1.612913    2.776470    -4.424014    -0.905852    -1.762625    -1.174911    -11.344559    0.000000    0.000000    0.000000    
-10.325143    103.479301    41.541195    0.179794    0.315787    93.840591    0.022261    -5.089698    0.032267    -1.745400    -2.918268    -0.011743    6.208740    16.303736    0.608633    1.059953    1.175133    0.776893    14.825848    -2.113037    -11.695139    -11.864079    -2.258610    7.228657    1.627018    -0.380498    -0.372042    1.328759    -0.343000    2.777986    -14.329581    -0.145289    -8.099613    10.597495    -0.537813    3.940432    -0.670689    -2.275759    -1.106348    -1.530690    -2.267371    -1.113635    0.017057    1.066907    -0.324957    -3.116007    6.989304    -0.278652    1.747346    -7.394145    13.814683    0.000000    0.000000    0.000000    -0.376233    6.683908    -1.583286    2.773437    -4.445114    -0.927668    -1.758592    -1.174369    -11.338466    0.000000    0.000000    0.000000    
-10.323905    103.478325    41.554222    0.183632    0.309900    93.839607    0.027096    -5.107227    0.023325    -1.771340    -2.896916    -0.021452    6.203756    16.272030    0.594612    1.104757    1.147339    0.766542    14.844828    -2.143967    -11.687772    -11.874411    -2.190293    7.218699    1.616775    -0.430279    -0.408351    1.503145    -0.389114    2.710449    -14.328094    -0.163253    -8.073378    10.643472    -0.596336    3.928489    -0.747751    -2.103385    -1.179739    -1.047848    -2.102116    -0.979922    0.027877    1.064336    -0.315884    -3.112021    6.998890    -0.269615    1.727058    -7.406900    13.801718    0.000000    0.000000    0.000000    -0.365097    6.692105    -1.556623    2.771910    -4.455137    -0.955460    -1.763027    -1.167100    -11.330532    0.000000    0.000000    0.000000    
-10.321918    103.476105    41.567032    0.188448    0.301072    93.826233    0.140652    -5.174506    -0.013427    -1.980128    -2.781818    -0.070257    6.268092    16.165173    0.636359    1.082403    1.171130    0.800590    14.931322    -2.201107    -11.574613    -11.860759    -2.125172    7.198993    1.618034    -0.480898    -0.447766    1.531585    -0.438919    2.673864    -14.237180    -0.244464    -7.976186    10.688823    -0.678956    3.927643    -0.740459    -2.064798    -1.215453    -1.066482    -2.063664    -0.965939    0.042377    1.067328    -0.297893    -3.109713    7.004470    -0.247733    1.761793    -7.409762    13.775694    0.000000    0.000000    0.000000    -0.357588    6.697886    -1.532226    2.784643    -4.458347    -0.979708    -1.770548    -1.169588    -11.312971    0.000000    0.000000    0.000000    
-10.318078    103.475174    41.577736    0.196640    0.300313    93.817886    0.016686    -5.120742    0.000747    -1.772595    -2.900278    -0.038438    6.230437    16.168756    0.601197    1.042508    1.173778    0.758871    14.818537    -2.175726    -11.673512    -11.859169    -2.115062    7.196673    1.638358    -0.522383    -0.422630    1.891665    -0.473981    2.573284    -14.311815    -0.204601    -8.034465    10.680530    -0.660823    3.942965    -0.659550    -2.173935    -1.144096    -1.538340    -2.165942    -1.086423    0.051915    1.104872    -0.519981    -3.142072    6.938848    0.010310    1.765612    -7.392107    13.740957    0.000000    0.000000    0.000000    -0.362176    6.732874    -1.534485    2.806849    -4.501067    -0.908887    -1.759678    -1.150982    -11.374147    0.000000    0.000000    0.000000    
-10.315429    103.473999    41.586582    0.200157    0.298369    93.802719    0.031385    -5.116071    -0.012585    -1.805380    -2.937640    -0.065057    6.199096    16.160374    0.619832    1.079988    1.159150    0.782946    14.794913    -2.178532    -11.668372    -11.829126    -2.089602    7.208158    1.653332    -0.534325    -0.409191    1.994818    -0.484920    2.501775    -14.292719    -0.210481    -7.967832    10.706651    -0.727425    3.934132    -0.672660    -2.136225    -1.159775    -1.487647    -2.128999    -1.081949    0.059524    1.110066    -0.512273    -3.141087    6.939717    0.013846    1.788516    -7.385859    13.735505    0.000000    0.000000    0.000000    -0.364903    6.736449    -1.503619    2.818456    -4.504001    -0.918001    -1.772329    -1.154341    -11.377755    0.000000    0.000000    0.000000    
-10.312486    103.472092    41.596970    0.203397    0.293283    93.785286    0.030922    -5.123146    -0.022844    -1.811975    -2.952611    -0.072340    6.192423    16.143394    0.620859    1.053452    1.130381    0.779730    14.789027    -2.186700    -11.678260    -11.822011    -2.104568    7.205320    1.703972    -0.538562    -0.402869    1.823014    -0.492042    2.542566    -14.280839    -0.232201    -7.937387    10.730448    -0.792933    3.940246    -0.666434    -2.135506    -1.160624    -1.564882    -2.127242    -1.100094    0.068753    1.116158    -0.529409    -3.140277    6.937876    0.018606    1.784805    -7.396770    13.763172    0.000000    0.000000    0.000000    -0.359389    6.737228    -1.477801    2.822503    -4.501449    -0.956714    -1.749442    -1.162127    -11.344486    0.000000    0.000000    0.000000    
